<svg xmlns="http://www.w3.org/2000/svg" viewBox="0 0 424.53 183.81"><defs><style>.cls-1{fill:#005ba4;}.cls-2{fill:#f6cb3a;}.cls-3{fill:#eabc3b;}.cls-4{fill:#cea142;}.cls-5{fill:#fff;}.cls-6{fill:#a1cc3a;}.cls-7,.cls-8{fill:#221f1f;}.cls-8{font-size:25.45px;font-family:MyriadPro-Regular, Myriad Pro;}</style></defs><title>Asset 22</title><g id="Layer_2" data-name="Layer 2"><g id="Layer_1-2" data-name="Layer 1"><path class="cls-1" d="M164.42,9.86q-7.7,7.79-7.7,20.2a21.68,21.68,0,0,0,2.67,10.84A29.36,29.36,0,0,0,166,49a35,35,0,0,0,8.69,5.42,41.86,41.86,0,0,0,8.88,2.86q4.15.79,9.18,2.07a39.73,39.73,0,0,1,9.48,3.74,23.83,23.83,0,0,1,7.5,6.5,16.66,16.66,0,0,1,3.06,10.34,23.73,23.73,0,0,1-1.88,9.85,21.72,21.72,0,0,1-4.94,7,19.36,19.36,0,0,1-7.21,4.24,27.3,27.3,0,0,1-8.69,1.38H156.72v5.32h33.37a30.64,30.64,0,0,0,11.35-2.07,26.94,26.94,0,0,0,9-5.71,25.28,25.28,0,0,0,5.82-8.77,29.64,29.64,0,0,0,2.07-11.23,22.59,22.59,0,0,0-2.76-11.72,24.82,24.82,0,0,0-6.91-7.58,33.44,33.44,0,0,0-8.89-4.53q-4.74-1.57-8.89-2.56-5.33-1.18-10.56-2.76a33.65,33.65,0,0,1-9.18-4.24,21.86,21.86,0,0,1-6.42-6.6,18.21,18.21,0,0,1-2.47-9.85q0-11.23,6.42-16.95A23,23,0,0,1,184.56,7.4h33.76V2.08H184.56q-12.44,0-20.14,7.78"/><path class="cls-1" d="M319.76,102.36H301.25V7.4h14.39V2.08h-40a27.21,27.21,0,0,1,6.81,5.32h13.46v95H266.5v5.32h60.09a24.41,24.41,0,0,1-6.83-5.32"/><path class="cls-1" d="M374.8,12.2a10.86,10.86,0,0,0-1.2.58,16.21,16.21,0,0,1,2.62,5.85,31.83,31.83,0,0,1,.79,7.29v8.67h5.33V23a25.33,25.33,0,0,0-2.6-11.79,16.19,16.19,0,0,0-4.95,1"/><path class="cls-1" d="M377,84a44.64,44.64,0,0,1-.69,8.57,12.35,12.35,0,0,1-2.19,5.11l.3.11a23.17,23.17,0,0,0,5.31.78A24.76,24.76,0,0,0,382.35,87V75.37H377Z"/><path class="cls-1" d="M361.22,104.08q-.67-.83-1.25-1.72H340.89a30.63,30.63,0,0,1-8.49-1,11.3,11.3,0,0,1-5.33-3.15,11.47,11.47,0,0,1-2.66-5.61,44.31,44.31,0,0,1-.69-8.57V25.92a31.72,31.72,0,0,1,.79-7.29,16.08,16.08,0,0,1,2.67-5.91,11.92,11.92,0,0,1,5.23-3.94,22.54,22.54,0,0,1,8.49-1.38H360c.39-.59.81-1.17,1.26-1.72A16.88,16.88,0,0,1,365,2.22c-1-.09-2.08-.15-3.21-.15H339.11q-11.25,0-16,5.91t-4.74,15V87q0,8.87,4.74,14.78t15.8,5.91H362c1.06,0,2.05-.05,3-.13a17,17,0,0,1-3.81-3.47"/><path class="cls-1" d="M419.89,8Q415.25,2.08,404,2.08H380.11q-11.25,0-16,5.91t-4.74,15V87q0,8.87,4.74,14.78t15.8,5.91h24.28q11.05,0,15.7-5.91T424.53,87V23q0-9.06-4.64-15m-.69,76a44.72,44.72,0,0,1-.69,8.57,12,12,0,0,1-2.57,5.61,10.68,10.68,0,0,1-5.23,3.15,30.67,30.67,0,0,1-8.49,1H381.88a30.63,30.63,0,0,1-8.49-1,11.3,11.3,0,0,1-5.33-3.15,11.48,11.48,0,0,1-2.67-5.61,44.4,44.4,0,0,1-.69-8.57V25.92a31.66,31.66,0,0,1,.79-7.29,16.09,16.09,0,0,1,2.67-5.91,11.92,11.92,0,0,1,5.23-3.94,22.54,22.54,0,0,1,8.49-1.38H402a22.56,22.56,0,0,1,8.49,1.38,12,12,0,0,1,5.23,3.94,16.21,16.21,0,0,1,2.67,5.91,31.89,31.89,0,0,1,.79,7.29Z"/><path class="cls-1" d="M287.09,30.25q0-12.41-7.31-20.29T260,2.08H223.13V7.4H260q9.48,0,15.6,5.71t6.12,17.14q0,11.82-6.12,17T260,52.51H228.46v-25h-5.33v80.19h5.33V57.83H260q12.44,0,19.74-7.59t7.31-20"/><path class="cls-2" d="M124.8,9.22a16.05,16.05,0,0,0-4.53-6.11Q116.83,0,113.6,0H16.09l-.31,16h81q3.23,0,6.67,3.11A16.06,16.06,0,0,1,108,25.26c.42.92.57,1.46.46,1.61l-1,56-.11,15.34,16.76-7.85.17-23.52,1-56c.11-.15,0-.69-.46-1.61"/><path class="cls-3" d="M108.44,26.87c.11-.15,0-.69-.46-1.61a16,16,0,0,0-4.53-6.11Q100,16,96.78,16h-81L15.54,28.5H84q3.23,0,6.67,3.11a16.06,16.06,0,0,1,4.53,6.11c.42.92.57,1.46.46,1.61l-1,56-.07,8.84,12.75-6,.11-15.34Z"/><path class="cls-4" d="M82.75,109.76l11.83-5.54.07-8.84,1-56c.11-.15,0-.69-.46-1.61a16.06,16.06,0,0,0-4.53-6.11Q87.21,28.51,84,28.5H15.54L14.8,67.1Z"/><path class="cls-2" d="M72.38,57.9a10.52,10.52,0,0,0-3-4,10.09,10.09,0,0,0-1.5-1.13,5.48,5.48,0,0,0-2.87-.9H1.16L.66,78c.15-.58.31-1.16.51-1.74,0,0,2.6,6,12.07,7.32,6,.84,11.57,2.09,14.88,2.9,1.94.47,3.1.8,3.1.8s5.65,1.29,10.55,7.78a34.57,34.57,0,0,1,6.09,14.51A42.09,42.09,0,0,0,36.85,98c-3.45-2.42-7.59-3.65-11.64-4.61a112.24,112.24,0,0,1-13-3.75c-2-.75-5-1.61-6.36-3.41A20.66,20.66,0,0,0,15.6,92.7c3.18,1.13,6.53,1.67,9.7,2.81a38.65,38.65,0,0,1,10.07,5.4,40.79,40.79,0,0,1,7.83,7.79s5.27,6.82,7.21,12.46l21.51-10.08L72,102l0-6.35L72.68,59c.07-.1,0-.45-.3-1.06"/><path class="cls-1" d="M36.67,76.63a5.25,5.25,0,1,0,6.82,3,5.25,5.25,0,0,0-6.82-3"/><path class="cls-1" d="M51.59,89.05a3.57,3.57,0,1,0,4.64,2,3.57,3.57,0,0,0-4.64-2"/><path class="cls-1" d="M21.6,56.35a7.95,7.95,0,1,0,10.32,4.49A7.94,7.94,0,0,0,21.6,56.35"/><path class="cls-1" d="M88.55,41.3a10.52,10.52,0,0,0-3-4,6.65,6.65,0,0,0-4.37-2H17.34L17,51.86H65a6.65,6.65,0,0,1,4.37,2,10.51,10.51,0,0,1,3,4c.27.6.38,1,.3,1.06L72,95.67,72,102l16.11-7.55.11-15.41.65-36.71c.07-.1,0-.45-.3-1.06"/><path class="cls-1" d="M31.24,87.32s-1.16-.32-3.11-.8l13.66,8.58c-4.91-6.49-10.55-7.78-10.55-7.78"/><polygon class="cls-5" points="32.04 51.86 33.53 51.86 33.53 31.07 34.05 31.07 34.05 51.86 39.89 51.86 39.89 26.98 32.04 26.98 32.04 51.86"/><rect class="cls-5" x="30.16" y="22.37" width="11.61" height="3.96"/><polygon class="cls-5" points="46.05 51.86 47.54 51.86 47.54 31.07 48.06 31.07 48.06 51.86 53.9 51.86 53.9 26.98 46.05 26.98 46.05 51.86"/><rect class="cls-5" x="44.17" y="22.37" width="11.61" height="3.96"/><path class="cls-5" d="M60.06,51.86h1.49V31.07h.52V51.86h3a5.49,5.49,0,0,1,2.87.9V27H60.06Z"/><rect class="cls-5" x="58.18" y="22.37" width="11.61" height="3.96"/><path class="cls-6" d="M50.41,121.15c-1.94-5.64-7.21-12.46-7.21-12.46a40.76,40.76,0,0,0-7.83-7.79,38.64,38.64,0,0,0-10.07-5.4c-3.17-1.14-6.53-1.68-9.7-2.81a20.67,20.67,0,0,1-9.74-6.49c1.38,1.8,4.34,2.66,6.36,3.41a112.28,112.28,0,0,0,13,3.75c4.05,1,8.19,2.19,11.64,4.61a42.09,42.09,0,0,1,11,11.63C44.11,90.24,31.24,87.31,31.24,87.31a157.8,157.8,0,0,0-18-3.7C3.77,82.29,1.17,76.29,1.17,76.29,1,76.87.81,77.45.66,78A26,26,0,0,0,1.94,93.51c3.8,10,10.94,18.38,21.91,20.39,8.18,1.5,18-1.55,24.25,5.55a45.88,45.88,0,0,1,3,5.7,10.32,10.32,0,0,0-.69-4"/><path class="cls-7" d="M46.64,139.59q1.28.07,1.86.13V148H44.71a6,6,0,0,1-2.41-.4A2.47,2.47,0,0,1,41,146.27a6.43,6.43,0,0,1-.4-2.52,6.66,6.66,0,0,1,.38-2.49,2.44,2.44,0,0,1,1.25-1.33,5.69,5.69,0,0,1,2.38-.41q.73,0,2,.07m-4.18,5.83a1.61,1.61,0,0,0,.84.88,3.91,3.91,0,0,0,1.59.26h2V141q-1.33-.1-2.11-.1a3.66,3.66,0,0,0-1.55.27,1.62,1.62,0,0,0-.82.88,4.39,4.39,0,0,0-.25,1.63,4.49,4.49,0,0,0,.26,1.69m.56-8.88h1.41v1.61H43Zm2.22,0h1.39v1.61H45.25Z"/><path class="cls-7" d="M54.92,139.9a4,4,0,0,1,1.55,1.83,7.76,7.76,0,0,1,.58,3.23v3H50.11v-1.41h5.38V145a4.81,4.81,0,0,0-.91-3.32,2.86,2.86,0,0,0-2.14-1H51l-.12-1.18a5.28,5.28,0,0,1,.81-.17,7.37,7.37,0,0,1,1.06-.08,4.2,4.2,0,0,1,2.17.57"/><path class="cls-7" d="M63.84,139.48q1,.11,1.62.24v7.09a9.29,9.29,0,0,1-.66,3.89,2.46,2.46,0,0,1-2.45,1.38,23.34,23.34,0,0,1-2.62-.26v-1.41a16.77,16.77,0,0,0,2.51.27,1.85,1.85,0,0,0,.91-.2,1.3,1.3,0,0,0,.53-.79,6.13,6.13,0,0,0,.18-1.72H61.59a2.57,2.57,0,0,1-2.53-1.18,6.33,6.33,0,0,1-.61-2.92,8.44,8.44,0,0,1,.36-2.62,2.55,2.55,0,0,1,1.13-1.43,4.3,4.3,0,0,1,2.15-.46,16.34,16.34,0,0,1,1.75.11m-3.41,6.31a1.71,1.71,0,0,0,1.68.77h1.78V140.9a10.41,10.41,0,0,0-1.45-.12,2.19,2.19,0,0,0-1.87.7,4.09,4.09,0,0,0-.54,2.35,4.26,4.26,0,0,0,.4,2"/><path class="cls-7" d="M75.64,146.57V148H67.07v-1.41h5.38V145a4.8,4.8,0,0,0-.91-3.32,2.85,2.85,0,0,0-2.14-1H67.95l-.12-1.18a5.16,5.16,0,0,1,.81-.17,7.36,7.36,0,0,1,1.06-.08,4.2,4.2,0,0,1,2.17.57,4,4,0,0,1,1.55,1.83A7.74,7.74,0,0,1,74,145v1.61Z"/><path class="cls-7" d="M85.58,146.57V148H75.64v-1.41h6.54v-4.08a1.42,1.42,0,0,0-1.63-1.59q-.73,0-3.44.27l-.05-1.11q.9-.21,2-.37a14,14,0,0,1,1.85-.16,3.07,3.07,0,0,1,2.06.64,2.71,2.71,0,0,1,.75,2.16v4.24Z"/><path class="cls-7" d="M97.34,146.57V148h-.65a1.28,1.28,0,0,1-.63-.19,1.92,1.92,0,0,1-.56-.49V148H85.58v-1.41h2.69A15.8,15.8,0,0,1,88,143.9a15.19,15.19,0,0,1,.15-2.11,16.46,16.46,0,0,1,.33-1.78,6.75,6.75,0,0,1,1.24-.33,9.2,9.2,0,0,1,1.7-.15,4.07,4.07,0,0,1,3.1,1,4.76,4.76,0,0,1,.94,3.3v2.05a1.47,1.47,0,0,0,.49.49,1.31,1.31,0,0,0,.71.19Zm-7.66-1.19q.07.74.16,1.19h4.09V143.8a3.12,3.12,0,0,0-.64-2.2,2.7,2.7,0,0,0-2-.67,6.46,6.46,0,0,0-1.39.15,17.56,17.56,0,0,0-.25,2.82,14.64,14.64,0,0,0,.08,1.48"/><polygon class="cls-7" points="100.96 136.18 100.96 147.98 97.34 147.98 97.34 146.57 99.38 146.57 99.38 136.18 100.96 136.18"/><rect class="cls-7" x="103.85" y="136.18" width="1.58" height="11.8"/><path class="cls-7" d="M121,146.57V148h-5.63a6,6,0,0,1-2.41-.4,2.47,2.47,0,0,1-1.28-1.31,6.43,6.43,0,0,1-.4-2.52,6.66,6.66,0,0,1,.38-2.49,2.44,2.44,0,0,1,1.25-1.33,5.69,5.69,0,0,1,2.38-.41q.73,0,2,.07t1.86.13v6.84Zm-7.88-1.14a1.61,1.61,0,0,0,.84.88,3.91,3.91,0,0,0,1.59.26h2V141q-1.33-.1-2.11-.1a3.66,3.66,0,0,0-1.55.27,1.62,1.62,0,0,0-.82.88,4.39,4.39,0,0,0-.25,1.63,4.49,4.49,0,0,0,.26,1.69m.74-8.88h1.41v1.61h-1.41Zm2.23,0h1.4v1.61H116Z"/><path class="cls-7" d="M127.48,146.57V148H121v-1.41h2.47v-6.88H125v6.88Zm-5.1,2.74h1.41v1.59h-1.41Zm2.23,0H126v1.59h-1.4Z"/><path class="cls-7" d="M138.81,146.57V148H127.48v-1.41h7.44v-2.3a3.23,3.23,0,0,0-.38-1.61,1.28,1.28,0,0,0-1.16-.7h-4.48l-.95-1.26.91-1.77a11.8,11.8,0,0,1,.9-1.43q.59-.82,1.17-1.52l1.13.65a31.31,31.31,0,0,0-1.76,2.9l-.55,1h3.8a2.42,2.42,0,0,1,2.25,1.11,5,5,0,0,1,.67,2.62v2.29Z"/><path class="cls-7" d="M145.33,146.57V148h-6.53v-1.41h2.48v-6.88h1.58v6.88Zm-5.1,2.74h1.41v1.59h-1.41Zm2.23,0h1.4v1.59h-1.4Z"/><path class="cls-7" d="M151.86,146.57V148h-6.53v-1.41h2.47v-6.88h1.58v6.88Zm-5.08-10h1.41v1.61h-1.41Zm2.23,0h1.4v1.61H149Z"/><path class="cls-7" d="M164.46,141.74a12.16,12.16,0,0,1,.16,1.63V148h-3.21a2.84,2.84,0,0,1-1.84-.66A2.09,2.09,0,0,1,158,148h-6.09v-1.41h2.64v-6h1.58v6h1.36a1.14,1.14,0,0,0,1.07-.61,3.15,3.15,0,0,0,.34-1.54v-3.89h1.58v3.88a6.07,6.07,0,0,1-.22,1.69,2.71,2.71,0,0,0,.57.33,1.61,1.61,0,0,0,.66.15H163v-3.2q0-1.16-.27-3.63l1.33-.05q.2,1,.36,2"/><polygon class="cls-7" points="175.96 146.57 175.96 147.98 166.39 147.98 166.39 146.57 168.5 146.57 168.5 138.41 170.08 138.41 170.08 146.57 172.97 146.57 172.97 136.18 174.53 136.18 174.53 146.57 175.96 146.57"/><path class="cls-7" d="M182.48,146.57V148H176v-1.41h2.47v-6.88H180v6.88Zm-4,2.74H180v1.62h-1.51Z"/><polygon class="cls-7" points="186.1 136.18 186.1 147.98 182.48 147.98 182.48 146.57 184.52 146.57 184.52 136.18 186.1 136.18"/><rect class="cls-7" x="188.99" y="136.18" width="1.58" height="11.8"/><path class="cls-7" d="M207.54,139.69V148H201a10.23,10.23,0,0,1-2.49-.25,2.6,2.6,0,0,1-1.45-.87,2.73,2.73,0,0,1-.49-1.73,11.28,11.28,0,0,1,.16-1.71q.16-1,.36-1.92l1.25.07-.15,1.23a16.13,16.13,0,0,0-.2,2,1.54,1.54,0,0,0,.64,1.38,4.47,4.47,0,0,0,2.3.42h5v-6.88Zm-7.07-1.61h1.41v1.61h-1.41Zm2.23,0h1.39v1.61h-1.39Z"/><polygon class="cls-7" points="213.42 146.57 213.42 147.98 210.26 147.98 210.26 136.18 211.84 136.18 211.84 146.57 213.42 146.57"/><path class="cls-7" d="M222.27,146.57V148h-8.85v-1.41h2.87a4.49,4.49,0,0,1-.66-1.31,5.56,5.56,0,0,1-.27-1.79,4.54,4.54,0,0,1,.46-2.12,3.25,3.25,0,0,1,1.3-1.37,3.76,3.76,0,0,1,1.89-.47,6.32,6.32,0,0,1,1.39.17,5.61,5.61,0,0,1,1.36.49l-.07,1.43a5.26,5.26,0,0,0-1.11-.43,5,5,0,0,0-1.41-.23,2.09,2.09,0,0,0-1.63.68,2.79,2.79,0,0,0-.62,1.94,4.3,4.3,0,0,0,.35,1.77,3.61,3.61,0,0,0,.86,1.25Z"/><polygon class="cls-7" points="227.37 146.57 227.37 147.98 224.21 147.98 224.21 136.18 225.79 136.18 225.79 146.57 227.37 146.57"/><path class="cls-7" d="M233.89,146.57V148h-6.53v-1.41h2.47v-6.88h1.58v6.88Zm-4-10h1.51v1.62h-1.51Z"/><path class="cls-7" d="M247.81,146.57V148H233.89v-1.41h2.36v-6.88h1.56v2.65a16,16,0,0,1,1.35-1.51,5,5,0,0,1,1.42-.94,4.55,4.55,0,0,1,1.88-.37,3.32,3.32,0,0,1,3,1.28,5.23,5.23,0,0,1,.87,3v2.75Zm-10-2.24v2.24h6.92v-2.49a3.75,3.75,0,0,0-.65-2.24,2.16,2.16,0,0,0-1.88-.9q-2.28,0-4.4,3.4"/><polygon class="cls-7" points="253.42 146.57 253.42 147.98 247.81 147.98 247.81 146.57 249.85 146.57 249.85 136.18 251.43 136.18 251.43 146.57 253.42 146.57"/><polygon class="cls-7" points="257.04 136.18 257.04 147.98 253.42 147.98 253.42 146.57 255.47 146.57 255.47 136.18 257.04 136.18"/><path class="cls-7" d="M272.52,146.57V148h-5.63a6,6,0,0,1-2.41-.4,2.46,2.46,0,0,1-1.28-1.31,6.43,6.43,0,0,1-.4-2.52,6.64,6.64,0,0,1,.38-2.49,2.44,2.44,0,0,1,1.25-1.33,5.69,5.69,0,0,1,2.37-.41q.73,0,2,.07t1.86.13v6.84Zm-7.88-1.14a1.61,1.61,0,0,0,.84.88,3.91,3.91,0,0,0,1.59.26h2V141q-1.33-.1-2.11-.1a3.66,3.66,0,0,0-1.55.27,1.62,1.62,0,0,0-.82.88,4.39,4.39,0,0,0-.25,1.63,4.47,4.47,0,0,0,.26,1.69m.74-8.88h1.41v1.61h-1.41Zm2.23,0H269v1.61h-1.39Z"/><path class="cls-7" d="M279,146.57V148h-6.53v-1.41H275v-6.88h1.58v6.88Zm-5.1,2.74h1.41v1.59h-1.41Zm2.23,0h1.39v1.59h-1.39Z"/><polygon class="cls-7" points="282.67 136.18 282.67 147.98 279.05 147.98 279.05 146.57 281.09 146.57 281.09 136.18 282.67 136.18"/><path class="cls-7" d="M290.17,139.48q1,.11,1.62.24v7.09a9.29,9.29,0,0,1-.66,3.89,2.46,2.46,0,0,1-2.45,1.38,23.34,23.34,0,0,1-2.62-.26v-1.41a16.77,16.77,0,0,0,2.51.27,1.85,1.85,0,0,0,.91-.2,1.3,1.3,0,0,0,.53-.79,6.12,6.12,0,0,0,.18-1.72h-2.28a2.57,2.57,0,0,1-2.53-1.18,6.33,6.33,0,0,1-.61-2.92,8.44,8.44,0,0,1,.36-2.62,2.55,2.55,0,0,1,1.13-1.43,4.3,4.3,0,0,1,2.15-.46,16.34,16.34,0,0,1,1.75.11m-3.41,6.31a1.71,1.71,0,0,0,1.68.77h1.78V140.9a10.41,10.41,0,0,0-1.45-.12,2.19,2.19,0,0,0-1.87.7,4.09,4.09,0,0,0-.54,2.35,4.26,4.26,0,0,0,.4,2"/><path class="cls-7" d="M302,146.57V148H293.4v-1.41h5.38V145a4.8,4.8,0,0,0-.91-3.32,2.85,2.85,0,0,0-2.14-1h-1.45l-.12-1.18a5.16,5.16,0,0,1,.81-.17,7.36,7.36,0,0,1,1.06-.08,4.2,4.2,0,0,1,2.17.57,4,4,0,0,1,1.55,1.83,7.74,7.74,0,0,1,.58,3.23v1.61Z"/><polygon class="cls-7" points="305.58 136.18 305.58 147.98 301.96 147.98 301.96 146.57 304.01 146.57 304.01 136.18 305.58 136.18"/><rect class="cls-7" x="308.47" y="136.18" width="1.58" height="11.8"/><path class="cls-7" d="M319.18,136.23l-3.47.68-.17-.6.8-.21a1.49,1.49,0,0,1-.45-.56,1.59,1.59,0,0,1-.15-.67,1.52,1.52,0,0,1,.45-1.09,1.54,1.54,0,0,1,1.16-.46,2.2,2.2,0,0,1,1.23.4l-.18.75a1.22,1.22,0,0,0-.3-.17,1.12,1.12,0,0,0-.43-.08.92.92,0,0,0-.95.93.92.92,0,0,0,.4.76l1.86-.5Zm.62,10.34V148h-3.16V137.6h1.58v9Z"/><path class="cls-7" d="M326.33,146.57V148H319.8v-1.41h2.48v-6.88h1.58v6.88Zm-4,2.74h1.51v1.62h-1.51Z"/><path class="cls-7" d="M338.92,141.74a12.16,12.16,0,0,1,.16,1.63V148h-3.21a2.84,2.84,0,0,1-1.84-.66,2.09,2.09,0,0,1-1.61.66h-6.09v-1.41H329v-6h1.58v6h1.36A1.14,1.14,0,0,0,333,146a3.15,3.15,0,0,0,.34-1.54v-3.89h1.58v3.88a6.07,6.07,0,0,1-.22,1.69,2.71,2.71,0,0,0,.57.33,1.61,1.61,0,0,0,.66.15h1.59v-3.2q0-1.16-.27-3.63l1.33-.05q.2,1,.36,2"/><path class="cls-7" d="M354.22,146.57V148H348.6a6,6,0,0,1-2.41-.4,2.47,2.47,0,0,1-1.28-1.31,6.43,6.43,0,0,1-.4-2.52,6.64,6.64,0,0,1,.38-2.49,2.44,2.44,0,0,1,1.24-1.33,5.7,5.7,0,0,1,2.38-.41q.73,0,2,.07t1.86.13v6.84Zm-7.88-1.14a1.61,1.61,0,0,0,.84.88,3.92,3.92,0,0,0,1.6.26h2V141q-1.33-.1-2.11-.1a3.66,3.66,0,0,0-1.55.27,1.62,1.62,0,0,0-.82.88,4.39,4.39,0,0,0-.25,1.63,4.47,4.47,0,0,0,.26,1.69m.74-8.88h1.41v1.61h-1.41Zm2.22,0h1.39v1.61h-1.39Z"/><path class="cls-7" d="M362.55,141.66a5,5,0,0,1,.67,2.62V148h-9v-1.41h7.44v-2.3a3.24,3.24,0,0,0-.38-1.61,1.28,1.28,0,0,0-1.16-.7h-4.48l-.95-1.26.91-1.77a11.73,11.73,0,0,1,.9-1.43q.59-.82,1.17-1.52l1.13.65a31.4,31.4,0,0,0-1.76,2.9l-.55,1h3.8a2.42,2.42,0,0,1,2.25,1.11"/><path class="cls-7" d="M371.15,148h-2.29v.1a5.45,5.45,0,0,1-.68,3,2.3,2.3,0,0,1-2.06,1,7.59,7.59,0,0,1-.83,0l-.4,0v-1.39q.55,0,.9,0a1.26,1.26,0,0,0,1.13-.6,3.1,3.1,0,0,0,.38-1.67v-8.7h1.56v6.86h2.29Z"/><path class="cls-7" d="M383.74,141.74a12.1,12.1,0,0,1,.16,1.63V148h-3.2a2.84,2.84,0,0,1-1.84-.66,2.09,2.09,0,0,1-1.61.66h-6.1v-1.41h2.64v-6h1.58v6h1.36a1.14,1.14,0,0,0,1.07-.61,3.14,3.14,0,0,0,.34-1.54v-3.89h1.58v3.88a6.12,6.12,0,0,1-.22,1.69,2.72,2.72,0,0,0,.56.33,1.6,1.6,0,0,0,.67.15h1.59v-3.2q0-1.16-.27-3.63l1.33,0q.2,1,.36,2m-6.64-5.16h1.41v1.57h-1.41Zm1.13-2.1h1.36V136h-1.36Zm1.1,2.1h1.39v1.57h-1.39Z"/><path class="cls-7" d="M41.2,174.7a8,8,0,0,0,4,1.14c2.31,0,3.66-1.22,3.66-3s-.93-2.56-3.3-3.47c-2.85-1-4.62-2.49-4.62-4.95,0-2.72,2.26-4.74,5.66-4.74a8,8,0,0,1,3.87.85l-.62,1.84a7,7,0,0,0-3.32-.83c-2.39,0-3.3,1.42-3.3,2.62,0,1.63,1.06,2.43,3.48,3.37,3,1.14,4.46,2.56,4.46,5.13s-2,5-6.12,5a9.06,9.06,0,0,1-4.46-1.11Z"/><path class="cls-7" d="M54.23,159.06h2.28v7.82h.05a4.22,4.22,0,0,1,1.63-1.61,4.7,4.7,0,0,1,2.34-.65c1.69,0,4.39,1,4.39,5.36v7.46H62.64v-7.2c0-2-.75-3.73-2.91-3.73a3.28,3.28,0,0,0-3.06,2.28,2.75,2.75,0,0,0-.16,1.09v7.56H54.23Z"/><path class="cls-7" d="M69.9,171.6c.05,3.08,2,4.35,4.31,4.35a8.27,8.27,0,0,0,3.48-.65l.39,1.63a10.2,10.2,0,0,1-4.18.78c-3.87,0-6.18-2.54-6.18-6.32s2.23-6.76,5.89-6.76c4.1,0,5.19,3.6,5.19,5.9a8.57,8.57,0,0,1-.08,1.06ZM76.6,170c0-1.45-.6-3.7-3.17-3.7-2.31,0-3.32,2.12-3.5,3.7Z"/><path class="cls-7" d="M81.53,177.45c.05-.85.1-2.12.1-3.24V159.06h2.26v7.87h.05a4.68,4.68,0,0,1,4.28-2.3c3.11,0,5.32,2.59,5.29,6.4,0,4.48-2.83,6.71-5.63,6.71a4.48,4.48,0,0,1-4.21-2.36h-.08l-.1,2.07Zm2.36-5a4.25,4.25,0,0,0,.1.83,3.52,3.52,0,0,0,3.43,2.67c2.39,0,3.81-1.94,3.81-4.82,0-2.51-1.3-4.66-3.74-4.66a3.64,3.64,0,0,0-3.48,2.8,4.48,4.48,0,0,0-.13.93Z"/><path class="cls-7" d="M103.36,177.45l-.18-1.58h-.08a4.68,4.68,0,0,1-3.84,1.86,3.57,3.57,0,0,1-3.84-3.6c0-3,2.7-4.69,7.55-4.66v-.26a2.59,2.59,0,0,0-2.86-2.9,6.27,6.27,0,0,0-3.27.93l-.52-1.5a7.8,7.8,0,0,1,4.13-1.11c3.84,0,4.77,2.62,4.77,5.13v4.69a17.59,17.59,0,0,0,.21,3Zm-.34-6.4c-2.49-.05-5.32.39-5.32,2.82A2,2,0,0,0,99.85,176a3.12,3.12,0,0,0,3-2.1,2.37,2.37,0,0,0,.13-.72Z"/><path class="cls-7" d="M114.49,160.2a26.24,26.24,0,0,1,4.33-.34,7.19,7.19,0,0,1,4.9,1.45,4.68,4.68,0,0,1,1.53,3.65,5.14,5.14,0,0,1-1.35,3.73,7.26,7.26,0,0,1-5.35,1.92,7.82,7.82,0,0,1-1.82-.15v7h-2.26Zm2.26,8.42a7.56,7.56,0,0,0,1.87.18c2.73,0,4.39-1.32,4.39-3.73s-1.63-3.42-4.13-3.42a9.46,9.46,0,0,0-2.13.18Z"/><rect class="cls-7" x="128.09" y="159.06" width="2.28" height="18.39"/><path class="cls-7" d="M141.17,177.45l-.18-1.58h-.08a4.68,4.68,0,0,1-3.84,1.86,3.57,3.57,0,0,1-3.84-3.6c0-3,2.7-4.69,7.55-4.66v-.26a2.59,2.59,0,0,0-2.86-2.9,6.27,6.27,0,0,0-3.27.93l-.52-1.5a7.8,7.8,0,0,1,4.13-1.11c3.84,0,4.77,2.62,4.77,5.13v4.69a17.59,17.59,0,0,0,.21,3Zm-.34-6.4c-2.49-.05-5.32.39-5.32,2.82a2,2,0,0,0,2.15,2.17,3.12,3.12,0,0,0,3-2.1,2.37,2.37,0,0,0,.13-.72Z"/><path class="cls-7" d="M146.41,175.12a6,6,0,0,0,3,.91c1.66,0,2.44-.83,2.44-1.86s-.65-1.68-2.34-2.3c-2.26-.8-3.32-2-3.32-3.55,0-2,1.63-3.68,4.34-3.68a6.29,6.29,0,0,1,3.09.78l-.57,1.66a4.9,4.9,0,0,0-2.57-.73c-1.35,0-2.1.78-2.1,1.71s.75,1.5,2.39,2.12c2.18.83,3.3,1.92,3.3,3.78,0,2.2-1.71,3.76-4.7,3.76a7.17,7.17,0,0,1-3.53-.86Z"/><path class="cls-7" d="M159.75,161.31v3.6H163v1.74h-3.27v6.76c0,1.55.44,2.43,1.71,2.43a5.13,5.13,0,0,0,1.32-.15l.1,1.71a5.61,5.61,0,0,1-2,.31,3.17,3.17,0,0,1-2.47-1,4.64,4.64,0,0,1-.88-3.26v-6.84h-1.95v-1.74h1.95v-3Z"/><path class="cls-7" d="M165,176.1a1.53,1.53,0,0,1,1.56-1.63A1.63,1.63,0,1,1,165,176.1"/><rect class="cls-7" x="170.46" y="159.99" width="2.26" height="17.46"/><path class="cls-7" d="M176.85,168.31c0-1.29,0-2.36-.1-3.39h2l.13,2.07h.05a4.62,4.62,0,0,1,4.15-2.36c1.74,0,4.44,1,4.44,5.34v7.48h-2.28v-7.23c0-2-.75-3.7-2.91-3.7a3.34,3.34,0,0,0-3.22,3.39v7.54h-2.28Z"/><path class="cls-7" d="M198.52,171.6c.05,3.08,2,4.35,4.31,4.35a8.27,8.27,0,0,0,3.48-.65l.39,1.63a10.2,10.2,0,0,1-4.18.78c-3.87,0-6.18-2.54-6.18-6.32s2.23-6.76,5.89-6.76c4.1,0,5.19,3.6,5.19,5.9a8.57,8.57,0,0,1-.08,1.06Zm6.7-1.63c0-1.45-.6-3.7-3.17-3.7-2.31,0-3.32,2.12-3.5,3.7Z"/><path class="cls-7" d="M210.25,168.82c0-1.48,0-2.74-.1-3.91h2l.08,2.46h.1a3.77,3.77,0,0,1,3.48-2.75,2.47,2.47,0,0,1,.65.08v2.15a3.43,3.43,0,0,0-.78-.08,3.2,3.2,0,0,0-3.06,2.93,6.38,6.38,0,0,0-.1,1.06v6.68h-2.26Z"/><path class="cls-7" d="M218.84,168.31c0-1.29,0-2.36-.1-3.39h2l.13,2.07h.05a4.62,4.62,0,0,1,4.15-2.36c1.74,0,4.44,1,4.44,5.34v7.48h-2.28v-7.23c0-2-.75-3.7-2.91-3.7a3.34,3.34,0,0,0-3.22,3.39v7.54h-2.28Z"/><path class="cls-7" d="M240.2,177.45l-.18-1.58h-.08a4.68,4.68,0,0,1-3.84,1.86,3.57,3.57,0,0,1-3.84-3.6c0-3,2.7-4.69,7.55-4.66v-.26a2.59,2.59,0,0,0-2.86-2.9,6.27,6.27,0,0,0-3.27.93l-.52-1.5a7.8,7.8,0,0,1,4.13-1.11c3.84,0,4.77,2.62,4.77,5.13v4.69a17.59,17.59,0,0,0,.21,3Zm-.34-6.4c-2.49-.05-5.32.39-5.32,2.82A2,2,0,0,0,236.7,176a3.12,3.12,0,0,0,3-2.1,2.37,2.37,0,0,0,.13-.72Z"/><path class="cls-7" d="M248.4,161.31v3.6h3.27v1.74H248.4v6.76c0,1.55.44,2.43,1.71,2.43a5.12,5.12,0,0,0,1.32-.15l.1,1.71a5.61,5.61,0,0,1-2,.31,3.17,3.17,0,0,1-2.47-1,4.64,4.64,0,0,1-.88-3.26v-6.84h-1.95v-1.74h1.95v-3Z"/><path class="cls-7" d="M256.79,161.39a1.41,1.41,0,0,1-2.83,0,1.39,1.39,0,0,1,1.43-1.42,1.35,1.35,0,0,1,1.4,1.42m-2.54,3.52h2.28v12.54h-2.28Z"/><path class="cls-7" d="M271.68,171.08c0,4.64-3.22,6.66-6.25,6.66-3.4,0-6-2.49-6-6.45,0-4.2,2.75-6.66,6.23-6.66s6,2.62,6,6.45m-10,.13c0,2.75,1.58,4.82,3.81,4.82s3.82-2,3.82-4.87c0-2.12-1.06-4.82-3.76-4.82s-3.87,2.49-3.87,4.87"/><path class="cls-7" d="M274.56,168.31c0-1.29,0-2.36-.1-3.39h2l.13,2.07h.05a4.62,4.62,0,0,1,4.15-2.36c1.74,0,4.44,1,4.44,5.34v7.48H283v-7.23c0-2-.75-3.7-2.91-3.7a3.34,3.34,0,0,0-3.22,3.39v7.54h-2.28Z"/><path class="cls-7" d="M295.92,177.45l-.18-1.58h-.08a4.68,4.68,0,0,1-3.84,1.86,3.57,3.57,0,0,1-3.84-3.6c0-3,2.7-4.69,7.55-4.66v-.26a2.59,2.59,0,0,0-2.86-2.9,6.27,6.27,0,0,0-3.27.93l-.52-1.5a7.8,7.8,0,0,1,4.13-1.11c3.84,0,4.77,2.62,4.77,5.13v4.69a17.59,17.59,0,0,0,.21,3Zm-.34-6.4c-2.49-.05-5.32.39-5.32,2.82a2,2,0,0,0,2.15,2.17,3.12,3.12,0,0,0,3-2.1,2.37,2.37,0,0,0,.13-.72Z"/><rect class="cls-7" x="301.48" y="159.06" width="2.28" height="18.39"/><path class="cls-7" d="M325.4,176.88a11.24,11.24,0,0,1-4.62.83c-4.93,0-8.64-3.11-8.64-8.83,0-5.46,3.71-9.17,9.14-9.17a9.39,9.39,0,0,1,4.15.78l-.54,1.84a8.24,8.24,0,0,0-3.53-.73c-4.1,0-6.83,2.62-6.83,7.2,0,4.27,2.46,7,6.72,7a9.06,9.06,0,0,0,3.68-.73Z"/><path class="cls-7" d="M339.24,171.08c0,4.64-3.22,6.66-6.25,6.66-3.4,0-6-2.49-6-6.45,0-4.2,2.75-6.66,6.23-6.66s6,2.62,6,6.45m-10,.13c0,2.75,1.58,4.82,3.81,4.82s3.82-2,3.82-4.87c0-2.12-1.06-4.82-3.76-4.82s-3.87,2.49-3.87,4.87"/><path class="cls-7" d="M340.95,176.1a1.53,1.53,0,0,1,1.56-1.63,1.63,1.63,0,1,1-1.56,1.63"/><polygon class="cls-7" points="352.45 159.99 354.7 159.99 354.7 175.56 362.18 175.56 362.18 177.45 352.45 177.45 352.45 159.99"/><path class="cls-7" d="M367.26,161.31v3.6h3.27v1.74h-3.27v6.76c0,1.55.44,2.43,1.71,2.43a5.12,5.12,0,0,0,1.32-.15l.1,1.71a5.61,5.61,0,0,1-2,.31,3.17,3.17,0,0,1-2.47-1,4.64,4.64,0,0,1-.88-3.26v-6.84h-1.95v-1.74H365v-3Z"/><path class="cls-7" d="M383.8,159.06v15.15c0,1.11,0,2.38.1,3.24h-2.05l-.1-2.18h-.05a4.65,4.65,0,0,1-4.28,2.46c-3,0-5.37-2.56-5.37-6.37,0-4.17,2.57-6.73,5.63-6.73a4.2,4.2,0,0,1,3.79,1.92h.05v-7.48Zm-2.28,11a4,4,0,0,0-.1-1,3.36,3.36,0,0,0-3.3-2.64c-2.36,0-3.76,2.07-3.76,4.84,0,2.54,1.25,4.64,3.71,4.64a3.43,3.43,0,0,0,3.35-2.72,4,4,0,0,0,.1-1Z"/><text class="cls-8" transform="translate(187.99 177.45)">t</text></g></g></svg>