<svg id="Layer_1" data-name="Layer 1" xmlns="http://www.w3.org/2000/svg" viewBox="0 0 1000 1000"><defs><style>.cls-1{fill:#18122b;stroke:#fff;stroke-miterlimit:1;stroke-width:0.36px;}.cls-2{fill:#8a4fff;}</style></defs><title>Artboard 6</title><rect class="cls-1" x="-2.82" y="-1.82" width="1005" height="1004"/><path class="cls-2" d="M519.74,326.75l-88.51,166.5c-9.29,17.48-34.53,16.89-43-1l-78-164.81a24.07,24.07,0,0,0-21.75-13.77H275.23a24.07,24.07,0,0,0-21.87,34.12L387.48,639.57c8.48,18.44,34.57,18.75,43.49.52L555.28,385.78a24.07,24.07,0,0,1,21-13.49l96.43-2.61-.36.77-76.05,163c-8.6,18.44-34.79,18.54-43.54.17l-4.86-10.2c-9-18.8-35.93-18.13-43.94,1.09h0a24.07,24.07,0,0,0,.72,20.07l50.91,101.17a24.07,24.07,0,0,0,42.84.31l154.91-297.1a24.07,24.07,0,0,0-21.37-35.19L541,314A24.07,24.07,0,0,0,519.74,326.75ZM694.82,344v0h0Zm0-13.43h0Z"/></svg>