<svg xmlns="http://www.w3.org/2000/svg" viewBox="0 0 327.01 230.84"><defs><style>.cls-1,.cls-3{fill:#fff;}.cls-2{fill:#8a4fff;}.cls-3{font-size:43.64px;font-family:TwCenMT-CondensedExtraBold, Tw Cen MT Condensed Extra Bold;}</style></defs><title>Asset 9</title><g id="Layer_2" data-name="Layer 2"><g id="Layer_1-2" data-name="Layer 1"><path class="cls-1" d="M206.77,149.5h21.45c1.15-4.35,1.49-8.43,3.17-11.41,4-7.08,8.71-13.54,12.92-20.45,2.26-3.71,4.17-3.91,7.08-.9,5.7,5.89,11.59,11.54,17.59,17,3.18,2.88,3.73,5.33,1.13,9.29-6.88,10.47-13.42,21.26-20.31,31.72-1.11,1.68-3.31,3.22-5,3.24-18.07.23-36.14.14-54.58.14l-.58-3.8c-8.67,1.3-17,3.39-25.29,3.63-18.49.54-37.12,1.76-55.45-.36-13.38-1.55-26.44,3.37-40.28-.38V161.64c-11.41,0-22.15,0-32.89,0-7.09,0-9.54-2.22-11.29-10.77-3-14.47,1.55-26.85,12.22-33.57C50.82,108.39,65,99.38,79.2,90.53c6-3.75,7.82-2.44,7.87,5.86.1,17.44,0,34.88,0,52.2,15.89,4.82,21.85,1.12,27.12-16.49.57-1.9.71-4.18,1.69-5.65s2.72-2,4.13-2.91c.43,1.66,1.47,3.49,1.19,4.95-1.3,6.84-3,13.58-4.57,20.71,7.56,1.42,13.85,1.13,19.91-5.45a295.08,295.08,0,0,1,28-26.48A63.35,63.35,0,0,1,183,106.66c13-4.82,23.77,4.32,25,21.07C208.46,134.6,207.26,141.65,206.77,149.5Zm-62.44-2,.72,2.11h42.66c.06-18-8.35-25.56-21.13-18.33C158.79,135.71,151.72,142,144.33,147.52Zm-76.11-28-25.3,15.55h25.3Z"/><path class="cls-1" d="M201.95,218.52c5-8.23,9.33-15.66,14.09-22.74,1-1.55,3.64-2.35,5.62-2.62,20-2.64,40-4.81,59.92-7.77,5.43-.81,10.57-3.81,15.85-5.81l-.29-2c-4.28,0-8.55.06-12.83,0-10.86-.18-13.66-4.94-8.58-15.43a222,222,0,0,1,11.83-21.43c6-9.62,16.33-9.31,22.14.65,5.9,10.13,5.77,21.3,3.19,32.45-4.68,20.18-17,32.31-35.28,37.85C253.23,219,228.35,220,201.95,218.52Z"/><path class="cls-1" d="M21,100c4.25-9.74,7.65-17.81,11.29-25.66a5.21,5.21,0,0,1,3.46-2.78C46.6,69.93,57.44,68.51,70,66.78,65.53,77,61.85,85.7,57.94,94.19c-.51,1.11-2.16,1.47-3.32,1.62C44,97.22,33.32,98.51,21,100Z"/><path class="cls-1" d="M157.22,115.54l-12-17,19-24.25,12,17.26Z"/><path class="cls-2" d="M217.82,16.53c-5.92-.66-9,1.73-12.2,5.21-23.38,25.5-47.07,50.83-70.7,76.21a30.77,30.77,0,0,1-3,2.48l-.61,1.09q.1.38-.38.54l-1.72,1.35,0,0-.72,1.13-.25.31-5.93-.51h0L118,99.87l-.18-.12c.61-1.6,1.59-3.39-2.42-2.66l-.34-.26-2.31-2.54a.72.72,0,0,1-.46-.36l-1.74-2.27,0,0-2.64-2.93,0,0L95.85,75.42l.16-.28-.22.25-5.16-5.81.13-.24-.2.21L88,66.63l.15-.35-.19.34-5.16-5.74-.11-.08L80.2,57.88l.14-.33-.19.32-7.81-8.71-.08,0-2.5-2.93.13-.36-.17.35-5.2-5.8.14-.26-.2.24L54.09,28.7l.14-.36-.18.35-6.2-7.05,0,0L38.44,11.19l.13-.3-.19.28-2.6-2.85-.09,0-2.57-2.8L33,5.39,32.29,0H61.45c1.61.95,3.69,1.67,4.77,2.88Q95.74,36.37,125,70c.21.25.14.63.21.95l2,1.71,2.89-3.54,0,0,1.66-2.25a.7.7,0,0,1,.48-.37l3.11-3.24,0,0,4.61-5.19.19-.12L154,42.5a.75.75,0,0,1,.45-.36l2.14-2.52a.74.74,0,0,1,.45-.34L160.2,36l0,0,2-2.27.19-.11L167.61,28l.19.2-.12-.23.58-.82q0-.46.57-.62l1.3-1.39.1-.07,1.65-1.74-.05.05,1.38-2h0l3.16-3.26.3-.22,3.14-3.32,0,0,4-4.85h0l3.37-3.23.08,0,2.61-2.86v.26l0-.25L192.78,0h0Q255.93,0,319.1.19c2.64,0,5.27,1.34,7.91,2.06l-.28.41-1.8,1.59c-12.48,14.09-24.86,28.23-37.46,42.27q-30.38,33.84-61,67.57c-1.29,1.43-2.72,2.8-4.9,5-6.33-6.42-12.39-12.26-18-18.33C195.47,92,187.7,83.06,179.73,74.21c-2.66-3-3.26-5.68.06-8.73,4.35-4,8.29-8.23,13.05-13l28.7,31.41c13.64-15.64,27.09-31,40.49-46.44,5.72-6.57,11.36-13.19,17-19.78l1.13-1.42a36.12,36.12,0,0,0-4.38-.53q-26.89-.06-53.79,0A22.5,22.5,0,0,0,217.82,16.53Z"/><text class="cls-3" transform="translate(0 219.12) scale(0.92 1)">WAMDHA</text></g></g></svg>