<svg xmlns="http://www.w3.org/2000/svg" viewBox="0 0 231.74 176.09"><defs><style>.cls-1,.cls-3{fill:#fff;}.cls-2{fill:#8a4fff;}.cls-3{font-size:28.28px;font-family:TwCenMT-CondensedExtraBold, Tw Cen MT Condensed Extra Bold;}</style></defs><title>Asset 6</title><g id="Layer_2" data-name="Layer 2"><g id="Layer_1-2" data-name="Layer 1"><path class="cls-1" d="M139,123.39h14.38c.77-2.82,1-5.47,2.12-7.39,2.67-4.59,5.84-8.78,8.66-13.25,1.52-2.4,2.79-2.53,4.75-.58,3.82,3.82,7.77,7.47,11.79,11,2.13,1.87,2.5,3.45.76,6-4.61,6.78-9,13.78-13.62,20.55a4.87,4.87,0,0,1-3.37,2.1c-12.11.15-24.23.09-36.59.09l-.39-2.46c-5.81.84-11.37,2.19-17,2.35-12.39.35-24.88,1.14-37.17-.23-9-1-17.72,2.18-27-.24V131.25c-7.65,0-14.85,0-22,0-4.75,0-6.39-1.44-7.57-7-2-9.38,1-17.4,8.19-21.75,9.51-5.79,19-11.62,28.53-17.36,4-2.43,5.24-1.58,5.28,3.79.07,11.3,0,22.6,0,33.83,10.65,3.12,14.65.73,18.18-10.68.38-1.23.47-2.71,1.13-3.66s1.82-1.28,2.77-1.88c.29,1.07,1,2.26.8,3.2-.87,4.43-2,8.8-3.06,13.42,5.07.92,9.28.73,13.35-3.53a195.21,195.21,0,0,1,18.79-17.16,42.85,42.85,0,0,1,12.34-6.88c8.74-3.12,15.94,2.8,16.73,13.65C140.13,113.73,139.33,118.3,139,123.39ZM97.14,122.1l.48,1.37h28.6c0-11.67-5.6-16.56-14.17-11.88C106.83,114.45,102.1,118.56,97.14,122.1ZM46.12,104,29.16,114h17Z"/><path class="cls-1" d="M135.76,168.11c3.37-5.33,6.26-10.15,9.44-14.73.7-1,2.44-1.53,3.77-1.69,13.39-1.71,26.81-3.12,40.16-5,3.64-.52,7.09-2.47,10.62-3.76l-.19-1.32c-2.87,0-5.73,0-8.6,0-7.28-.12-9.15-3.2-5.75-10a142.47,142.47,0,0,1,7.93-13.89c4.05-6.23,10.95-6,14.84.42s3.87,13.8,2.14,21c-3.14,13.08-11.41,20.94-23.65,24.53C170.14,168.44,153.47,169.09,135.76,168.11Z"/><path class="cls-1" d="M14.48,91.34C17.33,85,19.61,79.79,22,74.71a3.47,3.47,0,0,1,2.32-1.8c7.26-1.08,14.53-2,22.93-3.12-3,6.63-5.45,12.26-8.07,17.76-.34.72-1.45,1-2.22,1.05C29.87,89.51,22.72,90.35,14.48,91.34Z"/><path class="cls-1" d="M105.78,97.26l-8-11L110.47,70.5l8.06,11.18Z"/><path class="cls-2" d="M147.86,13.9c-4.55-.56-6.93,1.45-9.38,4.38-18,21.44-36.16,42.75-54.31,64.08a24.28,24.28,0,0,1-2.29,2.09l-.47.91q.07.32-.29.46L79.8,87l0,0-.55.95-.19.26-4.56-.43h0L71.15,84l-.14-.1c.47-1.35,1.22-2.85-1.86-2.23l-.26-.22L67.12,79.3a.57.57,0,0,1-.35-.3l-1.34-1.91,0,0-2-2.46h0L54.16,63.42l.12-.23-.17.21-4-4.89.1-.2-.15.18L48.16,56l.11-.29-.14.28-4-4.83-.09-.07-1.94-2.45.11-.28-.14.27-6-7.32-.06,0-1.92-2.46.1-.3-.13.29L30.1,34l.11-.22-.16.2-8-9.81.1-.3-.14.3L17.29,18.2l0,0L10.06,9.41l.1-.25L10,9.4,8,7,8,7,6,4.61l-.11-.07L5.33,0h22.4c1.24.8,2.84,1.4,3.66,2.42Q54.07,30.58,76.57,58.83c.16.21.11.53.16.8l1.56,1.44,2.22-3,0,0,1.28-1.89a.55.55,0,0,1,.37-.31l2.39-2.73,0,0L88,48.85l.15-.1,10.66-13a.59.59,0,0,1,.35-.3l1.64-2.12a.58.58,0,0,1,.35-.29l2.41-2.74,0,0,1.52-1.91.15-.09,4.05-4.76.15.17-.09-.19.45-.69a.51.51,0,0,1,.44-.52l1-1.17.08-.06,1.27-1.46,0,0L113.59,18h0L116,15.26l.23-.18,2.41-2.79,0,0,3.07-4.08h0l2.59-2.72.07,0,2-2.41v.22l0-.21L128.62,0h0c32.35,0,64.7,0,97,.15,2,0,4.05,1.13,6.08,1.73l-.21.34-1.39,1.33c-9.59,11.85-19.1,23.74-28.78,35.54Q178,67.57,154.52,95.93c-1,1.2-2.09,2.35-3.77,4.23-4.86-5.4-9.52-10.31-13.83-15.41-6.23-7.37-12.2-14.9-18.32-22.34-2-2.49-2.5-4.78,0-7.34,3.34-3.36,6.37-6.92,10-10.94l22,26.42c10.48-13.15,20.81-26.1,31.11-39.05,4.39-5.53,8.73-11.09,13.09-16.63l.87-1.19a25.46,25.46,0,0,0-3.37-.45q-20.66-.05-41.32,0A16,16,0,0,0,147.86,13.9Z"/><text class="cls-3" transform="translate(0 168.5) scale(0.95 1)">WAMDHA</text></g></g></svg>