<svg xmlns="http://www.w3.org/2000/svg" viewBox="0 0 125.3 125.14"><defs><style>.cls-1{fill:#f6cb3a;}.cls-2{fill:#eabc3b;}.cls-3{fill:#cea142;}.cls-4{fill:#005ba4;}.cls-5{fill:#fff;}.cls-6{fill:#a1cc3a;}</style></defs><title>Asset 2</title><g id="Layer_2" data-name="Layer 2"><g id="Layer_1-2" data-name="Layer 1"><path class="cls-1" d="M124.8,9.22a16.05,16.05,0,0,0-4.53-6.11Q116.83,0,113.6,0H16.09l-.31,16h81q3.23,0,6.67,3.11A16.06,16.06,0,0,1,108,25.26c.42.92.57,1.46.46,1.61l-1,56-.11,15.34,16.76-7.85.17-23.52,1-56c.11-.15,0-.69-.46-1.61"/><path class="cls-2" d="M108.44,26.87c.11-.15,0-.69-.46-1.61a16,16,0,0,0-4.53-6.11Q100,16,96.78,16h-81L15.54,28.5H84q3.23,0,6.67,3.11a16.06,16.06,0,0,1,4.53,6.11c.42.92.57,1.46.46,1.61l-1,56-.07,8.84,12.75-6,.11-15.34Z"/><path class="cls-3" d="M82.75,109.76l11.83-5.54.07-8.84,1-56c.11-.15,0-.69-.46-1.61a16.06,16.06,0,0,0-4.53-6.11Q87.21,28.51,84,28.5H15.54L14.8,67.1Z"/><path class="cls-1" d="M72.38,57.9a10.52,10.52,0,0,0-3-4,10.09,10.09,0,0,0-1.5-1.13,5.48,5.48,0,0,0-2.87-.9H1.16L.66,78c.15-.58.31-1.16.51-1.74,0,0,2.6,6,12.07,7.32,6,.84,11.57,2.09,14.88,2.9,1.94.47,3.1.8,3.1.8s5.65,1.29,10.55,7.78a34.57,34.57,0,0,1,6.09,14.51A42.09,42.09,0,0,0,36.85,98c-3.45-2.42-7.59-3.65-11.64-4.61a112.24,112.24,0,0,1-13-3.75c-2-.75-5-1.61-6.36-3.41A20.66,20.66,0,0,0,15.6,92.7c3.18,1.13,6.53,1.67,9.7,2.81a38.65,38.65,0,0,1,10.07,5.4,40.79,40.79,0,0,1,7.83,7.79s5.27,6.82,7.21,12.46l21.51-10.08L72,102l0-6.35L72.68,59c.07-.1,0-.45-.3-1.06"/><path class="cls-4" d="M36.67,76.63a5.25,5.25,0,1,0,6.82,3,5.25,5.25,0,0,0-6.82-3"/><path class="cls-4" d="M51.59,89.05a3.57,3.57,0,1,0,4.64,2,3.57,3.57,0,0,0-4.64-2"/><path class="cls-4" d="M21.6,56.35a7.95,7.95,0,1,0,10.32,4.49A7.94,7.94,0,0,0,21.6,56.35"/><path class="cls-4" d="M88.55,41.3a10.52,10.52,0,0,0-3-4,6.65,6.65,0,0,0-4.37-2H17.34L17,51.86H65a6.65,6.65,0,0,1,4.37,2,10.51,10.51,0,0,1,3,4c.27.6.38,1,.3,1.06L72,95.67,72,102l16.11-7.55.11-15.41.65-36.71c.07-.1,0-.45-.3-1.06"/><path class="cls-4" d="M31.24,87.32s-1.16-.32-3.11-.8l13.66,8.58c-4.91-6.49-10.55-7.78-10.55-7.78"/><polygon class="cls-5" points="32.04 51.86 33.53 51.86 33.53 31.07 34.05 31.07 34.05 51.86 39.89 51.86 39.89 26.98 32.04 26.98 32.04 51.86"/><rect class="cls-5" x="30.16" y="22.37" width="11.61" height="3.96"/><polygon class="cls-5" points="46.05 51.86 47.54 51.86 47.54 31.07 48.06 31.07 48.06 51.86 53.9 51.86 53.9 26.98 46.05 26.98 46.05 51.86"/><rect class="cls-5" x="44.17" y="22.37" width="11.61" height="3.96"/><path class="cls-5" d="M60.06,51.86h1.49V31.07h.52V51.86h3a5.49,5.49,0,0,1,2.87.9V27H60.06Z"/><rect class="cls-5" x="58.18" y="22.37" width="11.61" height="3.96"/><path class="cls-6" d="M50.41,121.15c-1.94-5.64-7.21-12.46-7.21-12.46a40.76,40.76,0,0,0-7.83-7.79,38.64,38.64,0,0,0-10.07-5.4c-3.17-1.14-6.53-1.68-9.7-2.81a20.67,20.67,0,0,1-9.74-6.49c1.38,1.8,4.34,2.66,6.36,3.41a112.28,112.28,0,0,0,13,3.75c4.05,1,8.19,2.19,11.64,4.61a42.09,42.09,0,0,1,11,11.63C44.11,90.24,31.24,87.31,31.24,87.31a157.8,157.8,0,0,0-18-3.7C3.77,82.29,1.17,76.29,1.17,76.29,1,76.87.81,77.45.66,78A26,26,0,0,0,1.94,93.51c3.8,10,10.94,18.38,21.91,20.39,8.18,1.5,18-1.55,24.25,5.55a45.88,45.88,0,0,1,3,5.7,10.32,10.32,0,0,0-.69-4"/></g></g></svg>