<svg xmlns="http://www.w3.org/2000/svg" viewBox="0 0 91.92 63.47"><defs><style>.cls-1,.cls-3{fill:#fff;}.cls-2{fill:#8a4fff;}.cls-3{font-size:12px;font-family:TwCenMT-CondensedExtraBold, Tw Cen MT Condensed Extra Bold;}</style></defs><title>wj</title><g id="Layer_2" data-name="Layer 2"><g id="Layer_1-2" data-name="Layer 1"><path class="cls-1" d="M55.8,41.11h6.44a13.76,13.76,0,0,1,1-3.14c1.2-1.95,2.62-3.72,3.88-5.62.68-1,1.25-1.07,2.13-.25,1.71,1.62,3.48,3.17,5.28,4.66a1.59,1.59,0,0,1,.34,2.56c-2.07,2.88-4,5.85-6.1,8.72a2.2,2.2,0,0,1-1.51.89c-5.43.06-10.86,0-16.4,0l-.18-1a71.22,71.22,0,0,1-7.6,1c-5.55.15-11.15.48-16.66-.1-4-.43-7.94.93-12.1-.1V44.44c-3.43,0-6.65,0-9.88,0-2.13,0-2.87-.61-3.39-3-.89-4,.47-7.38,3.67-9.23C9,29.8,13.2,27.33,17.48,24.89c1.81-1,2.35-.67,2.37,1.61,0,4.8,0,9.59,0,14.35,4.77,1.33,6.56.31,8.15-4.53a5.76,5.76,0,0,1,.51-1.55,4,4,0,0,1,1.24-.8c.13.46.44,1,.36,1.36-.39,1.88-.89,3.73-1.37,5.69,2.27.39,4.16.31,6-1.5a86,86,0,0,1,8.42-7.28,19.53,19.53,0,0,1,5.53-2.92c3.92-1.32,7.14,1.19,7.49,5.79A43.67,43.67,0,0,1,55.8,41.11ZM37,40.56l.22.58H50.08c0-5-2.51-7-6.35-5A69.43,69.43,0,0,0,37,40.56Zm-22.86-7.7-7.6,4.28h7.6Z"/><path class="cls-1" d="M54.35,60.09c1.51-2.26,2.8-4.31,4.23-6.25a2.65,2.65,0,0,1,1.69-.72c6-.73,12-1.32,18-2.14A26,26,0,0,0,83,49.38l-.09-.56c-1.28,0-2.57,0-3.85,0-3.26,0-4.1-1.36-2.58-4.24a59.7,59.7,0,0,1,3.55-5.89c1.82-2.64,4.91-2.56,6.65.18s1.73,5.86,1,8.92c-1.41,5.55-5.11,8.89-10.6,10.41C69.75,60.22,62.28,60.5,54.35,60.09Z"/><path class="cls-1" d="M0,27.51c1.28-2.68,2.3-4.9,3.39-7.06a1.55,1.55,0,0,1,1-.76c3.25-.46,6.51-.85,10.28-1.33-1.34,2.81-2.44,5.2-3.62,7.54-.15.31-.65.4-1,.45C6.9,26.73,3.69,27.09,0,27.51Z"/><path class="cls-1" d="M40.92,31.77l-3.6-4.68L43,20.42l3.61,4.74Z"/><path class="cls-2" d="M59.12,4.54A4,4,0,0,0,55.45,6c-7,7-14.14,14-21.24,21a9.11,9.11,0,0,1-.9.68l-.18.3q0,.1-.11.15l-.52.37h0l-.22.31-.08.09-1.78-.14h0l-1.32-1.22-.05,0c.18-.44.48-.93-.73-.73l-.1-.07-.69-.7a.22.22,0,0,1-.14-.1l-.52-.62h0l-.79-.81h0l-3.63-3.68,0-.08-.07.07-1.55-1.6,0-.07-.06.06-.76-.8,0-.1-.06.09-1.55-1.58,0,0-.76-.8,0-.09-.06.09-2.35-2.39h0l-.75-.8,0-.1-.05.1-1.56-1.59,0-.07L13,11.1,9.93,7.89l0-.1-.05.1L8.06,6h0L5.23,3.08l0-.08-.06.08-.78-.78h0l-.77-.77,0,0L3.39,0h8.76A6.28,6.28,0,0,1,13.58.8Q22.44,10,31.24,19.24c.06.07,0,.17.06.26l.61.47.87-1h0l.5-.62a.21.21,0,0,1,.14-.1l.93-.89h0L35.72,16l.06,0L40,11.69a.22.22,0,0,1,.14-.1l.64-.69a.22.22,0,0,1,.14-.09l.94-.9h0l.59-.62.06,0L44,7.7l.06.05,0-.06.17-.23q0-.13.17-.17l.39-.38,0,0,.5-.48h0l.42-.55h0l.95-.9.09-.06L47.69,4h0l1.2-1.33h0l1-.89h0L50.7,1V1l.89-1h0q19,0,37.95.05a10.52,10.52,0,0,1,2.38.57l-.08.11-.54.44C87.54,5,83.82,8.93,80,12.79q-9.12,9.31-18.32,18.58c-.39.39-.82.77-1.47,1.38-1.9-1.77-3.72-3.37-5.41-5-2.44-2.41-4.77-4.87-7.16-7.3-.8-.81-1-1.56,0-2.4,1.31-1.1,2.49-2.26,3.92-3.58l8.62,8.64L72.4,10.3c1.72-1.81,3.41-3.63,5.12-5.44l.34-.39a11.81,11.81,0,0,0-1.32-.15q-8.08,0-16.16,0A7.32,7.32,0,0,0,59.12,4.54Z"/><text class="cls-3" transform="translate(9.64 60.25)">WAMDHA</text></g></g></svg>